<svg preserveAspectRatio="xMidYMid meet" data-bbox="20.6 35.185 160.133 130.315" viewBox="20.6 35.185 160.133 130.315" height="200" width="200" xmlns="http://www.w3.org/2000/svg" data-type="color" role="presentation" aria-hidden="true" aria-labelledby="svgcid-g5sruj2vxvyg"><defs><style>#comp-kckjiu4v svg [data-color="1"] {fill: #E6F0FF;}
#comp-kckjiu4v svg [data-color="2"] {fill: #000000;}
#comp-kckjiu4v svg [data-color="3"] {fill: #F5D0C6;}
#comp-kckjiu4v svg [data-color="4"] {fill: #5D6A83;}
#comp-kckjiu4v svg [data-color="5"] {fill: #FC5C65;}
#comp-kckjiu4v svg [data-color="6"] {fill: #ACB2BD;}
#comp-kckjiu4v svg [data-color="7"] {fill: #FFFFFF;}
#comp-kckjiu4v svg [data-color="8"] {fill: #000000;}</style></defs><title id="svgcid-g5sruj2vxvyg"></title>
    <g>
        <path d="M180.3 115.1c-1.8 7.7-10.7 12.3-18.1 10.2-1.3-.4-2.6-.7-4-.9h-.1c-2.4-.2-4.8-.2-7.2 0h-.1c-1.2.2-2.4.5-3.6.8-6.5 1.7-13.1-1.2-16.6-6.7-.1-.2-.2-.3-.3-.5-.2-.3-.6-.5-1-.4-6.7 2.5-13.4 5.2-20 8-.1 0-.4.2-.7.3 0 0-1.9.8-2.2.9l-5.1 2.1c-4.6 1.9-9.1 3.8-13.7 5.7-5.7 2.3-11.6 5.1-17.8 6-15.5 2.4-25.6-15.7-15.2-27.3.5-.5.9-1 1.4-1.5.5-.5.2-1.3-.5-1.4-4.5-.5-8.7-3-11.3-7.1-.4-.6-.7-1.3-1-1.9-.2-.4-.5-.6-.9-.5-4.6.6-9.5-1-12.9-4.1-6.1-5.6-5.1-14.9 0-20.7 10.8-12.4 25.5-20.9 40.4-27.4 17.2-7.5 35.6-14.5 54.7-13.4 6 .3 11.1 3.5 13.5 9 .9 2.2 1.3 4.5 1.1 6.7 0 .5.4.9.9.9 5.6-.6 11.3-.9 17-.8 3.3 0 6.4 1.2 8.8 3.1 6.5 5 8.2 11.6 5.4 17.2.4 0 .7.1 1.1.1.6.1 1.2.2 1.6.6 1.1.9.8 2.8 0 4-1 1.7-2.5 3.1-3.4 4.9-.9 1.8-1.1 4.2.4 5.5 1.3 1.1 3.3 1.1 4.5 2.3 1.8 1.7.8 4.7-.8 6.6-.7.9-1.6 1.7-2.6 2.2-.1.1-.2.1-.3.2 6.9 2.8 10.3 10.2 8.6 17.3z" fill="#e3edfc" data-color="1"></path>
        <path opacity=".2" d="M165.3 164.2c0 .497-7.97.9-17.8.9-9.83 0-17.8-.403-17.8-.9s7.97-.9 17.8-.9c9.83 0 17.8.403 17.8.9z" fill="#000000" data-color="2"></path>
        <path opacity=".2" d="M124.9 163.4c0 .497-7.97.9-17.8.9-9.83 0-17.8-.403-17.8-.9s7.97-.9 17.8-.9c9.83 0 17.8.403 17.8.9z" fill="#000000" data-color="2"></path>
        <path opacity=".2" d="M56.2 164.6c0 .497-7.97.9-17.8.9-9.83 0-17.8-.403-17.8-.9s7.97-.9 17.8-.9c9.83 0 17.8.403 17.8.9z" fill="#000000" data-color="2"></path>
        <g opacity=".15">
            <path d="M92.5 76.6c2.3 0 4.1-1.8 4.1-4.1h-4.1v-4.1c-2.3 0-4.1 1.8-4.1 4.1s1.9 4.1 4.1 4.1z" fill="#000000" data-color="2"></path>
            <path d="M98.1 77.5v1.1H86.9v-1.1h11.2z" fill="#000000" data-color="2"></path>
            <path d="M98.1 79.6v1.1H86.9v-1.1h11.2z" fill="#000000" data-color="2"></path>
            <path d="M94 81.8v1.1h-7.1v-1.1H94z" fill="#000000" data-color="2"></path>
            <path d="M83.8 82.4v1.3h-17v-1.3h17z" fill="#000000" data-color="2"></path>
            <path d="M69.8 77.3v4.2h-2.3v-4.2h2.3z" fill="#000000" data-color="2"></path>
            <path d="M73.1 73.7v7.8h-2.3v-7.8h2.3z" fill="#000000" data-color="2"></path>
            <path d="M76.5 68.8v12.7h-2.3V68.8h2.3z" fill="#000000" data-color="2"></path>
            <path d="M79.8 72v9.5h-2.3V72h2.3z" fill="#000000" data-color="2"></path>
            <path d="M83.1 68.8v12.7h-2.3V68.8h2.3z" fill="#000000" data-color="2"></path>
            <path d="M163.5 104.9H62l14.3-10.8c.4.4 1 .7 1.6.7.7 0 1.4-.4 1.8-.9l9.1 5.4v.3c0 1.3 1 2.3 2.3 2.3s2.3-1 2.3-2.3c0-.3-.1-.6-.2-.9l21.2-21.3c.4.2.8.4 1.2.4.4 0 .8-.1 1.1-.3l7.8 9.5c-.3.4-.4.8-.4 1.3 0 1.3 1 2.3 2.3 2.3s2.3-1 2.3-2.3c0-.2 0-.3-.1-.5l20.2-14.6c.4.3.9.6 1.5.6 1.3 0 2.3-1 2.3-2.3 0-1.3-1-2.3-2.3-2.3s-2.3 1-2.3 2.3c0 .3.1.6.2.9l-20 14.5c-.4-.5-1.1-.9-1.8-.9-.4 0-.8.1-1.1.3l-7.8-9.5c.3-.4.4-.8.4-1.3 0-1.3-1-2.3-2.3-2.3s-2.3 1-2.3 2.3c0 .4.1.8.3 1.2L92.5 97.9c-.4-.3-.9-.6-1.5-.6-.8 0-1.5.4-1.9 1l-9-5.4v-.5c0-1.3-1-2.3-2.3-2.3s-2.3 1-2.3 2.3c0 .3.1.5.1.8l-14.6 11V60.4h-1v44.5h-8.4v1H60v5.2h1v-5.2h102.3v-1z" fill="#000000" data-color="2"></path>
        </g>
        <path fill="#f5d0c6" d="M113.5 157.6l-2.1 2.1-3.7-3.5 2.2-2.2 3.6 3.6z" data-color="3"></path>
        <path fill="#f5d0c6" d="M94 160.2l-3-.9 1.5-4.9 3 .9-1.5 4.9z" data-color="3"></path>
        <path fill="#6f757f" d="M75.7 142.8l-2.8 20h1l5.2-20.6h-3.3l-.1.6z" data-color="4"></path>
        <path fill="#6f757f" d="M96.5 142.8l2.8 20h-1L93 142.2h3.4l.1.6z" data-color="4"></path>
        <path opacity=".5" d="M75.7 142.8l-2.8 20h1l5.2-20.6h-3.3l-.1.6z" fill="#000000" data-color="2"></path>
        <path opacity=".5" d="M96.5 142.8l2.8 20h-1L93 142.2h3.4l.1.6z" fill="#000000" data-color="2"></path>
        <path d="M98.8 142.8H73.4v-.4c0-1.4 1.1-2.5 2.5-2.5h20.4c1.4 0 2.5 1.1 2.5 2.5v.4z" fill="#f96770" data-color="5"></path>
        <path fill="#adc0d8" d="M74.4 135.2l19 8.7 16.3 14.6 3.1-3-14-15.6-14.2-10-10.2 5.3z" data-color="6"></path>
        <path opacity=".1" d="M74.4 135.2l19 8.7 16.3 14.6 3.1-3-14-15.6-14.2-10-10.2 5.3z" fill="#000000" data-color="2"></path>
        <path d="M73.3 130.9v3.6c0 3.1 2.5 5.6 5.6 5.6h17.7c-3.2 3.8-5 16.2-5 16.2l4 1.1 7-17.9c1.3-3.3-1.2-6.9-4.8-6.9H85.2l.1-1.6-12-.1z" fill="#adc0d8" data-color="6"></path>
        <path d="M81.4 113.9l1 .2c3.2.6 2.2 2.6 3.6 5.5l1.2 2.3c.5 1 .5 2.1.1 3.1l1.8 4c-.2.4-.3.7-.3 1.1-.1 1.3-1 2.5-2.3 3-2.6 1-7 2.6-10.4 2.9-2.1.2-3.9-1.5-3.9-3.6l-.1-9.9c0-.7.2-1.5.6-2.1l3.4-4.9c.6-.9 1.5-1.4 2.6-1.6l1.7-.2c.3.1.7.1 1 .2z" fill="#ffffff" data-color="7"></path>
        <path d="M83 105.9c0-.9-.4-1.7-.8-2.4l-.1.1c-.9-.8-2.2-1.1-3.3-.8-1.1.3-2.1 1.1-2.7 2.1-.9 1.4-1 3.3-.4 4.8.3.7.7 1.3 1.2 1.8.1.7.1 1.4.2 2.1v1c0 .5.1 1 .3 1.3.3.7.9 1.2 1.6 1.2 1.1 0 1.9-1.2 1.9-2.7v-1.5c.1-.1.3-.1.4-.2.2-.2.4-.4.5-.6.4-.6.8-1.2.9-1.9.1-.5 0-1.1.1-1.6 0-.9.3-1.8.2-2.7z" fill="#f5d0c6" data-color="3"></path>
        <path d="M79.3 113c-.9-.3-1.7-.8-2.4-1.4.2.5.6 1 .9 1.4.2.2.5.5.8.6.2.1.4.1.6.1.5 0 1.1-.2 1.5-.5-.5-.1-1-.1-1.4-.2z" opacity=".1" fill="#000000" data-color="2"></path>
        <path d="M77 113.8l-3.5.7c-1.7.3-3.2 1.5-3.8 3.1l-3.9 9.3c-.6 1.3.4 2.8 1.9 2.8l14.1-.7.6-2-1.5.5-8.8-.7c-.7-.1-1.1-.9-.7-1.5l5.9-8.1c-.2 0 .9-2.9-.3-3.4z" fill="#f5d0c6" data-color="3"></path>
        <path d="M90.5 158.4l-1 2.5v1.9h12v-.5c0-.5-.3-.9-.8-1l-1.9-.5-4-2.4H94l-.3.7h-2.1l-.2-.7h-.9z" fill="#131c2d" data-color="8"></path>
        <path d="M89.5 161.8v1h12v-.5c0-.2 0-.4-.1-.5H89.5z" fill="#6f757f" data-color="4"></path>
        <path d="M110.4 159.4l1.4 2.3 1.6 1.2 7.5-9.6-.4-.3c-.4-.3-.9-.3-1.3 0l-1.5 1.3-4.6 1.8-.4.6.4.7-1.2 1.7-.7-.3-.8.6z" fill="#131c2d" data-color="8"></path>
        <path d="M112.5 162.2l.8.6 7.5-9.6-.4-.3c-.1-.1-.3-.2-.5-.2l-7.4 9.5z" fill="#6f757f" data-color="4"></path>
        <path d="M80.6 100.6c-1.2-.3-2.3.1-3.5.3-4.3.7-3.7 7.3-1.3 9.1-.2-.4.2-1.3.8-1.7-.2.2-.5 0-.7-.2s-.2-.5-.2-.8c0-.3 0-.7.1-.9.1-.3.5-.5.8-.4.1.4.4.8.8 1-.3-.5-1-4.7 4.9-2.9.5.2 1.9.6 2.5-3-2.4 1.1-2.6-.1-4.2-.5z" fill="#131c2d" data-color="8"></path>
        <path d="M77.1 113.9c-.1-.1-.1-.1 0 0l-3.6.6c-1.7.3-3.2 1.5-3.8 3.1l-2.7 5.7c2.1-.2 4.3 2 5.8.8l4.4-6.9s.2-.5.3-1.2c-.2-.4-.3-.8-.3-1.3-.1-.3-.1-.6-.1-.8z" fill="#ffffff" data-color="7"></path>
        <path fill="#f5d0c6" d="M151.7 96.5l8.9-2.3-1.8-3.9v-3.6l-2.8-6.1-2.6 5-1 5.7-.7 5.2z" data-color="3"></path>
        <path d="M156.9 83.8c.2.4.2 1 .3 1.4.1.8 0 1.6.3 2.4.1.4.3.7.5 1.1 0 .1.1.1.1.2h.1c.4 0 .7-.3.8-.7.1-.3.1-.7.1-1.1 0-.6.4-1.2.5-1.8v-.6c.1-.5.2-1 .4-1.5.2-1-.2-1.8-.7-2.7-.2-.4-.5-.9-.8-1.3-.4-.5-.9-.5-1.4-.8-.4-.2-.6-.7-1.1-.8-.6-.1-1.1.5-1.6.2-.5-.2-1-.5-1.6-.2-.2.1-.4.3-.6.3h-.5c-.3 0-.6.1-.9.2-.3.1-.6.2-.7.5-.1.2 0 .4-.1.5-.1.2-.3.3-.6.3s-.5 0-.6.1c-.3.2-.4 1.1-.3 1.4.2.3.6.5.9.4.4 0 .7-.1 1.1-.2.4 0 .8.1 1 .4.1.1.1.2.1.3.1.6.3 1.2.4 1.8.1.6.3 1.1.7 1.5.4.4 1.1.5 1.7.4.6-.2 1-.6 1.3-1.2.1-.2.1-.5.3-.7.2-.2.5-.3.6-.1.2.1.2.2.3.3z" fill="#6f757f" data-color="4"></path>
        <path d="M149.6 81.3v2.9l.4.4s-.8 1.1-.8 2.3h.8v1.4c0 1.2 1 2.2 2.2 2.2h.3c1.7 0 3.1-1.4 3.1-3.1v-1.2s1.2-.6 1.2-1.6c0 0 .2-1.6-.8-1.6 0 0-1.3-.1-1.4 1l-1.4.1v-.8c0-.6-.4-1-1-1.1l-.1-1.7c-.1.1-1.8-.2-2.5.8z" fill="#f5d0c6" data-color="3"></path>
        <path d="M150.1 89c.2-.1.3.2.3.4 0 .1.1.3.2.4h.2c.1 0 .2 0 .3-.1.1 0 .1-.1.2-.1.2-.2.5-.4.4-.7 0-.3-.1-.6-.4-.8-.3-.1-.6-.1-.8-.1-.2 0-.5.1-.7-.1-.1-.1 0-.3 0-.4 0-.1 0-.1.1-.2.1-.2.8-.1 1-.1.2 0 .5-.1.8 0 .2 0 .5.1.6.3.1.2.2.4.4.5h.3c.2 0 .4-.1.5-.3.2-.2.1-.6 0-.8-.2-.6-.1-1.3-.3-1.9-.1-.3-.3-1.1 0-1.4h1.5c-.2.7-.3 1.9-.1 2.5.5 1.1 1.4 2.7.3 3.8-.3.3-.7.4-1 .6-.2.1-.5.2-.7.2h-.9c-.4 0-.8.2-1.1.1-.2 0-.5-.2-.7-.3l-.1-.1c0-.1 0-.1-.1-.2 0-.1-.1-.1-.1-.1-.1-.2-.2-.4-.2-.7 0-.3 0-.4.1-.4z" fill="#6f757f" data-color="4"></path>
        <path d="M142 99.3h-.2l-6.4-8.5-.7-1.9c-.2-.5-.6-.8-1.2-.8h-1.1l-.5.3-4.9-.3c0 .5.4.9.9 1l2.5.1.1 1.8c0 .7.4 1.2 1.1 1.5l1.7.7.7.6 6.2 10.2c.2.3.6.4.9.3l2.3-.8-1-4.1-.4-.1z" fill="#f5d0c6" data-color="3"></path>
        <path fill="#f5d0c6" d="M145.9 157.5v3.1h-4v-3.1h4z" data-color="3"></path>
        <path fill="#f96770" d="M147 158.4v4.6h-13.2v-1.6l3.8-.7 2.8-3.2h.6l.9 1.5 4 .1.6-.7h.5z" data-color="5"></path>
        <path fill="#131c2d" d="M140.4 159.1l.4-.4-.8-.8-.3.4.7.8z" data-color="8"></path>
        <path fill="#131c2d" d="M139.6 159.7l.4-.4-.5-.6-.4.3.5.7z" data-color="8"></path>
        <path fill="#131c2d" d="M139 160.2l.3-.4-.5-.5-.3.4.5.5z" data-color="8"></path>
        <path fill="#f5d0c6" d="M158.2 157.9v3.6h-3v-3.6h3z" data-color="3"></path>
        <path d="M159.7 139.3l.3-21.2-11.1-.7-1.4-2-.4 1.9-1.1-.1.9 1.2-4.9 21.5v18.4h4s3.3-12.8 1.6-18.1l4.5-10.4 2.4 11.4.4 17.1h3.3c0 .1 3.8-14.4 1.5-19z" fill="#131c2d" data-color="8"></path>
        <path fill="#f96770" d="M150.6 163h5.2l3-1.4-.2-2.5-.4.6h-.7l-1-1.3H154l-3.4 4.6z" data-color="5"></path>
        <path fill="#131c2d" d="M158.8 161.6v.9l-2.7 1.6h-5.5V163h5.2l3-1.4z" data-color="8"></path>
        <path fill="#131c2d" d="M155.2 159.2v.5h-1.7v-.5h1.7z" data-color="8"></path>
        <path fill="#131c2d" d="M154.9 160.1v.5h-1.7v-.5h1.7z" data-color="8"></path>
        <path fill="#131c2d" d="M154.3 161v.5h-1.7v-.5h1.7z" data-color="8"></path>
        <path fill="#131c2d" d="M146.9 163v1.1h-13.1V163h13.1z" data-color="8"></path>
        <path fill="#f5d0c6" d="M167.1 104.4l.3 3.6-3.2 14.9.3 2-.3 2.5-1 .8-1.2.4-1.4.5h-.6l-1.2-.5.8-1 .3-1.6-.5.9-.9.2 1.2-2.9 1.9-2.1 1.3-12.9-.5-4.8h4.7z" data-color="3"></path>
        <path fill="#f5d0c6" d="M167.1 105.4h-4.6l-.1-1h4.7v1z" data-color="3"></path>
        <path d="M167.7 104.4l-.4-7.9c0-.9-.5-1.7-1.3-2.2l-7.2-4.1-4.4 4.4-1.9-3.4-5.9 3.4c-.1.1-.2.1-.3.2l-4.4 3.9.9 5.6 4.9-2.9-2.9 17.3h15.8l1.5-14.4 5.6.1z" fill="#ffffff" data-color="7"></path>
        <path fill="#f5d0c6" d="M151.7 96.4l8.9-2.2-1.8-4 .1-3.5-2.9-6.1-2.6 5-.9 5.6-.8 5.2z" data-color="3"></path>
        <path fill="#f5d0c6" d="M145.9 157.5v3.1h-4v-3.1h4z" data-color="3"></path>
        <path fill="#f96770" d="M147 158.4v4.6h-13.2v-1.6l3.8-.7 2.8-3.2h.6l.9 1.5 4 .1.6-.7h.5z" data-color="5"></path>
        <path fill="#131c2d" d="M140.4 159.1l.4-.4-.8-.8-.3.4.7.8z" data-color="8"></path>
        <path fill="#131c2d" d="M139.6 159.7l.4-.4-.5-.6-.4.3.5.7z" data-color="8"></path>
        <path fill="#131c2d" d="M139 160.2l.3-.4-.5-.5-.3.4.5.5z" data-color="8"></path>
        <path fill="#f5d0c6" d="M158.2 158.4v3.1h-3v-3.1h3z" data-color="3"></path>
        <path fill="#f96770" d="M150.6 163h5.3l2.9-1.4-.2-2.5-.4.6h-.7l-1-1.3H154l-3.4 4.6z" data-color="5"></path>
        <path fill="#131c2d" d="M158.8 161.6v.9l-2.7 1.6h-5.5V163h5.3l2.9-1.4z" data-color="8"></path>
        <path fill="#131c2d" d="M155.2 159.2v.5h-1.7v-.5h1.7z" data-color="8"></path>
        <path fill="#131c2d" d="M154.9 160.1v.5h-1.7v-.5h1.7z" data-color="8"></path>
        <path fill="#131c2d" d="M154.3 161v.5h-1.7v-.5h1.7z" data-color="8"></path>
        <path fill="#131c2d" d="M146.9 163v1.1h-13.1V163h13.1z" data-color="8"></path>
        <path d="M152.5 91.2l-5.9 3.4c-.1.1-.2.1-.3.2l-4.4 3.9.9 5.6 11.1-6.5-1.4-6.6z" fill="#ffffff" data-color="7"></path>
        <path fill="#ffffff" d="M162.9 97.3l-2.3 21.4h-15.8l4.2-25 3.5-2.5 1.9 3.4 4.4-4.4 4.1 7.1z" data-color="7"></path>
        <path d="M156.9 83.8c.2.4.2 1 .3 1.4.1.8 0 1.6.3 2.4.1.4.3.7.5 1.1 0 .1.1.1.1.2h.1c.4 0 .7-.3.8-.7.1-.3.1-.7.1-1.1 0-.6.4-1.2.5-1.8v-.6c.1-.5.2-1 .4-1.5.2-1-.2-1.8-.7-2.7-.2-.4-.5-.9-.8-1.3-.4-.5-.9-.5-1.4-.8-.4-.2-.6-.7-1.1-.8-.6-.1-1.1.5-1.6.2-.5-.2-1-.5-1.6-.2-.2.1-.4.3-.6.3h-.5c-.3 0-.6.1-.9.2-.3.1-.6.2-.7.5-.1.2 0 .4-.1.5-.1.2-.3.3-.6.3s-.5 0-.6.1c-.3.2-.4 1.1-.3 1.4.2.3.6.5.9.4.4 0 .7-.1 1.1-.2.4 0 .8.1 1 .4.1.1.1.2.1.3.1.6.3 1.2.4 1.8.1.6.3 1.1.7 1.5.4.4 1.1.5 1.7.4.6-.2 1-.6 1.3-1.2.1-.2.1-.5.3-.7.2-.2.5-.3.6-.1.2.1.2.2.3.3z" fill="#6f757f" data-color="4"></path>
        <path d="M149.6 81.3v2.9l.4.4s-.8 1.1-.8 2.3h.8v1.4c0 1.2 1 2.2 2.2 2.2h.3c1.7 0 3.1-1.4 3.1-3.1v-1.2s1.2-.6 1.2-1.6c0 0 .2-1.6-.8-1.6 0 0-1.3-.1-1.4 1l-1.4.1v-.8c0-.6-.4-1-1-1.1l-.1-1.7c0 .1-1.7-.3-2.5.8z" fill="#f5d0c6" data-color="3"></path>
        <path d="M150.1 88.9c.2-.1.3.2.3.4 0 .1.1.3.2.4h.2c.1 0 .2 0 .3-.1.1 0 .1-.1.2-.1.2-.2.5-.4.4-.7 0-.3-.1-.6-.4-.8-.3-.1-.6-.1-.8-.1-.2 0-.5.1-.7-.1-.1-.1 0-.3 0-.4 0-.1 0-.1.1-.2.1-.2.8-.1 1-.1.2 0 .5-.1.8 0 .2 0 .5.1.6.3.1.2.2.4.4.5h.3c.2 0 .4-.1.5-.3.2-.2.1-.6 0-.8-.2-.6-.1-1.3-.3-1.9-.1-.3-.3-1.1 0-1.4h1.5c-.2.7-.3 1.9-.1 2.5.5 1.1 1.4 2.7.3 3.8-.3.3-.7.4-1 .6-.2.1-.5.2-.7.2h-.9c-.4 0-.8.2-1.1.1-.2 0-.5-.2-.7-.3l-.1-.1c0-.1 0-.1-.1-.2 0-.1-.1-.1-.1-.1-.1-.2-.2-.4-.2-.7 0-.2 0-.3.1-.4z" fill="#6f757f" data-color="4"></path>
        <path fill="#f5d0c6" d="M167.1 104.4l.3 3.5-3.2 15 .4 2-.4 2.5-.9.8-1.3.4-1.4.5h-.6l-1.2-.5.8-1 .3-1.6-.5.9-.9.2 1.2-2.9 1.9-2.1 1.3-12.9-.5-4.8h4.7z" data-color="3"></path>
        <path fill="#f5d0c6" d="M167.1 105.4h-4.6l-.1-1h4.7v1z" data-color="3"></path>
        <path d="M158.8 90.2l7.2 4.1c.8.4 1.3 1.3 1.3 2.2l.4 7.9H162l-.4-5.4-2.8-8.8z" fill="#ffffff" data-color="7"></path>
        <path fill="#6f757f" d="M171.6 132.7h-12.1l-.4-1.9-3.5-.2.5 2.1H68.2l.5-2.1-3.5.2-.4 1.9H52.7v1.6h11.8l-5.3 30.2h1l7.6-30.2h88.7l7.6 30.2h1l-5.3-30.2h11.8v-1.6z" data-color="4"></path>
        <path opacity=".5" d="M171.6 132.7h-12.1l-.4-1.9-3.5-.2.5 2.1H68.2l.5-2.1-3.5.2-.4 1.9H52.7v1.6h11.8l-5.3 30.2h1l7.6-30.2h88.7l7.6 30.2h1l-5.3-30.2h11.8v-1.6z" fill="#000000" data-color="2"></path>
        <path fill="#ffffff" d="M59.3 129.2l-6.6 3.5h118.9v1.6l2.4-3.3v-1.8H59.3z" data-color="7"></path>
        <path opacity=".1" d="M52.7 132.7l6.6-3.5H174l-2.4 3.5H52.7z" fill="#000000" data-color="2"></path>
        <path d="M98.4 119.6H82.1c-.3 0-.5.2-.6.4l-3.7 9.6h-6v1.1H95l4-10.3c.2-.4-.2-.8-.6-.8z" fill="#131c2d" data-color="8"></path>
        <path d="M89.4 125.1c0 .6-.5 1.1-1.1 1.1-.6 0-1.1-.5-1.1-1.1s.5-1.1 1.1-1.1c.6 0 1.1.5 1.1 1.1z" fill="#ffffff" data-color="7"></path>
        <path d="M101.3 125.7v.4h-.3c-.7 0-1.3.6-1.3 1.3s.6 1.3 1.3 1.3h.6c.2.4.4.8.8 1.2v.7h2.6v-.7c.7-.7 1.1-1.7 1.1-2.7v-1.4l-4.8-.1zm-.2 2.4c-.4 0-.7-.3-.7-.7s.3-.7.7-.7h.3v.5c0 .3 0 .7.1 1l-.4-.1z" fill="#f96770" data-color="5"></path>
        <path fill="#131c2d" d="M141.6 131.6h1.1l-1.1-4.6-4 4.6h4z" data-color="8"></path>
        <path fill="#6f757f" d="M142.4 123h-6.2l-2.7 8.6h6.9l2.7-8.6h-.7z" data-color="4"></path>
        <path opacity=".3" d="M142.4 123l-2.6 8.6h.6l2.7-8.6h-.7z" fill="#000000" data-color="2"></path>
        <path fill="#ffffff" d="M139.3 130.5h-4.6l1.9-6.4h4.7l-2 6.4z" data-color="7"></path>
        <path d="M112.4 132.5c-.7 0-.7-.3-.1-.6l3.6-1.9c.6-.3 1.7-.6 2.3-.6h9.3c.7 0 .7.3.1.6l-3.6 1.9c-.6.3-1.7.6-2.3.6h-9.3z" fill="#6f757f" data-color="4"></path>
        <path d="M113.9 132.2c-.5 0-.6-.2-.1-.5l3-1.6c.5-.3 1.3-.5 1.9-.5h7.4c.5 0 .6.2.1.5l-3 1.6c-.5.3-1.3.5-1.9.5h-7.4z" fill="#ffffff" data-color="7"></path>
        <path d="M113.9 132.2c-.5 0-.6-.2-.1-.5l3-1.6c.5-.3 1.3-.5 1.9-.5h7.4c.5 0 .6.2.1.5l-3 1.6c-.5.3-1.3.5-1.9.5h-7.4z" opacity=".1" fill="#000000" data-color="2"></path>
        <path d="M114.6 131c-.1 0-.1 0 0 0-.1-.1-.1-.1 0-.1l.9-.5h.1v.1l-1 .5z" fill="#6f757f" data-color="4"></path>
        <path opacity=".05" d="M136.6 124.1h.3l-1.9 6.2h4.3l2-6.2h-4.7l-1.9 6.4 1.9-6.4z" fill="#000000" data-color="2"></path>
        <path fill="#f5d0c6" d="M32.1 158.7l3.7 1.6 1.7-3.7-3.7-1.7-1.7 3.8z" data-color="3"></path>
        <path fill="#6f757f" d="M49.9 134.4l-3.8 9.3-8.9 14.3-4.4-2 9-16.9.9-20.5 7.2 15.8z" data-color="4"></path>
        <path fill="#f5d0c6" d="M50.2 158.2v3.8h-3.7v-3.8h3.7z" data-color="3"></path>
        <path d="M46.5 160.2l1.5 1.4h2.3l-.1-.9h.3l.7.1c3.8.1 4 3.7 4 3.7h-9.9v-3.8l.6-.4.6-.1z" fill="#f96770" data-color="5"></path>
        <path d="M32.8 157l.6 1.9 2 1 .4-.9.3.1.6.4c3.4 1.8 1.9 5.1 1.9 5.1l-8.8-4.5 1.8-3.4.7-.1.5.4z" fill="#f96770" data-color="5"></path>
        <path d="M66.8 99.4c.4 1.2.3 2.7-.5 3.6-5.9 6.9-1.2 11.4-2.3 11.1-10.8-3-4.5-17.4-3.4-19.1.8-1.3 3.5-3.6 4.8-1.7.6.9 1.7-7.5 4.1-2.5 3.6 7.7-3 7.5-2.7 8.6z" fill="#f96770" data-color="5"></path>
        <path d="M66.8 99.4c.4 1.2.3 2.7-.5 3.6-5.9 6.9-1.2 11.4-2.3 11.1-10.8-3-4.5-17.4-3.4-19.1.8-1.3 3.5-3.6 4.8-1.7.6.9 1.7-7.5 4.1-2.5 3.6 7.7-3 7.5-2.7 8.6z" opacity=".2" fill="#000000" data-color="2"></path>
        <path d="M42.3 127.2c0 .1.1.2.1.4l3.1 12.4v4.7l.6-1 3.8-9.3-7.3-15.8-.3 8.6z" opacity=".3" fill="#000000" data-color="2"></path>
        <path d="M41.5 115.1l-1.3 3.2c0 3.7 1.8 5.8 3 9.3l3.1 12.4v19.8h4.4l1.7-20.1-.3-20.1-10.6-4.5z" fill="#6f757f" data-color="4"></path>
        <path d="M61.1 101.6l5.4 7.6.3.3 4.1 3.4 1.9-.7c.4-.1.8-.1 1.2.1l2.5 1.8-.8.2-1 .4.2.3.9-.1c.4 0 .7.2.8.6v.2l-2 .3c-.8.4-1.7-.2-2.5-.3l-1.4-.1c-.1 0-.3-.1-.4-.1l-4.9-3.2c-.5-.3-1-.7-1.4-1.1l-4.2-4.1 1.3-5.5z" fill="#f5d0c6" data-color="3"></path>
        <path d="M58.8 98.8l-1.6 7.2 5.3 4.8c1.6-.3 1.8-5.3 1.8-5.3l-5.5-6.7z" fill="#adc0d8" data-color="6"></path>
        <path d="M58.8 98.8l-1.6 7.2 5.3 4.8c1.6-.3 1.8-5.3 1.8-5.3l-5.5-6.7z" opacity=".15" fill="#000000" data-color="2"></path>
        <path d="M65 98s-2.9 1.4-3.3 2.6L60.4 96l4.1-2.8.5 4.8z" fill="#f5d0c6" data-color="3"></path>
        <path d="M58.1 95c-4.4 2.6-8.2 6.1-11.1 10.2l-7 9.9c-.9 6.9 6.9 10.1 12.8 8.1 0 0 .1 0 .1-.1l2.3-7.8c.3-1.1 1.1-2.1 2.1-2.7l1.3-.8c1-.6 1.9-1.5 2.4-2.6 1-2.3 1.4-4.8 1-7.4l-.2-1.3-1.3-6.5c0-.1-.1-.1-.1-.1L58.1 95z" fill="#adc0d8" data-color="6"></path>
        <path d="M54.4 102.8v12l3.9 10.8c.1.5 0 1-.2 1.4l-1.1 2.6-.3.7c-.1.4.2.7.5.7l3-.2c.3 0 .6-.3.7-.6l.6-2.9-4-12.9 2.3-11.1c.3-1.7-1.1-3.2-2.8-3.1-1.4 0-2.6 1.2-2.6 2.6z" fill="#f5d0c6" data-color="3"></path>
        <path d="M57 99.8c-1.5.1-2.6.7-2.6 2.1l-.7 8.3s4.7 2.2 5.6.5l1.1-8.2c.2-1.6-1.6-2.8-3.4-2.7z" fill="#adc0d8" data-color="6"></path>
        <path fill="#f5d0c6" d="M61.2 126.3l1.9 4.3h-1.3l-1.2-2.4.6-1.9z" data-color="3"></path>
        <path d="M62.8 96.5c0 .6.2 1.2.5 1.6l.3.3c.2.1.4 0 .6-.1.2-.1.4-.1.5-.3.2-.3.1-.7-.1-1-.3-.6-.7-1.2-1.2-1.7-.8-.7-.7.6-.6 1.2z" opacity=".38" fill="#f5d0c6" data-color="3"></path>
        <path d="M64 92c1.2-.9 4.2-1.5 5.3-.1.6.8.4 1.9-.1 3-.2.5-.4 1.2-.2 1.9 0 .1-.9.1-1 .2-.2.3-.2.3-.4.5-.4.5-.8 1-1.4 1.2-.8.3-1.7-.1-2.2-.8-.6-.6-.8-1.4-1.1-2.2-.1-.3-.2-.7-.2-1 0-.9.5-2 1.3-2.7z" fill="#f5d0c6" data-color="3"></path>
        <path d="M71.2 90.9c-.3-.5-1-.5-1.5-.8-1-.6-1.2-2.1-2.2-2.5-.8-.3-1.7.2-2.6.3-.5 0-1-.1-1.5-.1-.8 0-1.5.2-2.2.6-1.2.7-2 1.9-2.3 3.3l-.4 1.8s.1.1.1.2c.2 1.4.5 4.3 1.9 4.7.6.2 1 .2 1-.1 0-.5 1.4-3.3 1.5-3.7.3-.7.9-1.4 1.6-1.3.3 0 .6.3.9.3 5.2 1.3 5.1-1.1 5.3-.7.4-.6.8-1.4.4-2z" fill="#f96770" data-color="5"></path>
        <path d="M54.4 114.5v-3.9c-.1 0-.2-.1-.3-.1l-.2 4.7v.3l.5 2.3.5-1.7-.5-1.3v-.3z" opacity=".1" fill="#000000" data-color="2"></path>
    </g>
</svg>