<svg preserveAspectRatio="xMidYMid meet" data-bbox="19.926 45 160.074 110" viewBox="19.926 45 160.074 110" height="200" width="200" xmlns="http://www.w3.org/2000/svg" data-type="color" role="presentation" aria-hidden="true" aria-labelledby="svgcid-eu0l9r-ca3fje"><defs><style>#comp-kckjjwl0 svg [data-color="1"] {fill: #000000;}
#comp-kckjjwl0 svg [data-color="2"] {fill: #E6F0FF;}
#comp-kckjjwl0 svg [data-color="3"] {fill: #FFFFFF;}
#comp-kckjjwl0 svg [data-color="4"] {fill: #ACB2BD;}
#comp-kckjjwl0 svg [data-color="5"] {fill: #FC5C65;}
#comp-kckjjwl0 svg [data-color="6"] {fill: #F5D0C6;}
#comp-kckjjwl0 svg [data-color="7"] {fill: #000000;}
#comp-kckjjwl0 svg [data-color="8"] {fill: #5D6A83;}</style></defs><title id="svgcid-eu0l9r-ca3fje"></title>
    <g>
        <path opacity=".1" d="M157.7 154.3c0 .387-6.223.7-13.9.7-7.677 0-13.9-.313-13.9-.7 0-.387 6.223-.7 13.9-.7 7.677 0 13.9.313 13.9.7z" fill="#000000" data-color="1"></path>
        <path d="M180 142.6c-.1-3.8-1.2-7.6-3.8-10.3-2.6-2.7-5.4-3.8-8.9-4.2-.5-1.1-1.2-2-2-2.9-.6-.6-1.1-1.1-1.7-1.5 1.3-1.2 2.4-2.7 3-3.9 1.4-2.9 1.9-6 1.5-9.2-.1-.9-.3-1.8-.6-2.7.2-1.4.2-2.9.1-4.5-.9-7.3-6.1-12.3-12.6-12.6-2.9-.1-5.8-.2-8.7-.2-.3-.6-.7-1.1-1-1.6 8.9-3 15.2-11.5 15.2-21.4 0-12.5-10.1-22.6-22.5-22.6-6.4 0-12.2 2.7-16.3 7-1.5.5-3.1.9-4.6 1.4-7.4 2.3-14.7 4.8-22 7.6-15 6-30 13.3-43.3 23.7-8.2 6.4-15.7 13.7-21 23.4-2.7 4.9-2.1 11.7 1 16.3-2.7 2.6-5.5 5.2-8.2 7.9-3.3 3.2-4.2 8.4-3.4 13.1h159.5c.3-1 .3-1.9.3-2.8z" fill="#e3edfc" data-color="2"></path>
        <path opacity=".1" d="M98.7 153.9c0 .387-16.834.7-37.6.7-20.766 0-37.6-.313-37.6-.7 0-.387 16.834-.7 37.6-.7 20.766 0 37.6.313 37.6.7z" fill="#000000" data-color="1"></path>
        <path d="M114.5 124.7H81c-.7 0-1.4-.6-1.4-1.4V85.5l.6-3.2c0-.8.4-1 1.1-1l32.2.6c.7 0 2.3-.4 2.3.3v41.2c.1.7-.5 1.3-1.3 1.3z" fill="#ffffff" data-color="3"></path>
        <path d="M114.6 80.8H80.9c-.7 0-1.3.6-1.3 1.3v3.4h36.2v-3.4c.1-.7-.5-1.3-1.2-1.3zm-32.2 2.8c-.2 0-.4-.2-.4-.4s.2-.4.4-.4.4.2.4.4-.2.4-.4.4zm1.8 0c-.2 0-.4-.2-.4-.4s.2-.4.4-.4.4.2.4.4-.2.4-.4.4zm1.7 0c-.2 0-.4-.2-.4-.4s.2-.4.4-.4.4.2.4.4-.1.4-.4.4z" fill="#adc0d8" data-color="4"></path>
        <path d="M108 80.9v14.4c0 1.4 1.1 2.4 2.4 2.4h5.3V80.9H108z" opacity=".1" fill="#000000" data-color="1"></path>
        <path d="M90.1 106.8c0 1.8-1.4 3.2-3.2 3.2-1.8 0-3.2-1.5-3.2-3.2s1.4-3.2 3.2-3.2c1.7-.1 3.2 1.4 3.2 3.2z" fill="#adc0d8" data-color="4"></path>
        <path fill="#adc0d8" d="M90.1 115.6a3.2 3.2 0 11-6.4 0 3.2 3.2 0 016.4 0z" data-color="4"></path>
        <path d="M146.9 104.9h-32.8c-2.1 0-3.8-1.7-3.8-3.8V76.7l1.7-3.5c0-2.1.1-2.8 2.2-2.8l31.3.6c2.1 0 3 .5 3 2.5l2.2 3.2v24.4c0 2.1-1.7 3.8-3.8 3.8z" fill="#ffffff" data-color="3"></path>
        <path d="M118.2 73.1c0 .3-.3.6-.6.6s-.6-.3-.6-.6.3-.6.6-.6.6.3.6.6z" fill="#ffffff" data-color="3"></path>
        <path fill="#adc0d8" d="M123 86.2a4.8 4.8 0 11-9.6 0 4.8 4.8 0 019.6 0z" data-color="4"></path>
        <path d="M86 86.5h-6.2v23.8H86c1.5 0 2.7-1.2 2.7-2.8V89.2c.1-1.5-1.2-2.7-2.7-2.7z" opacity=".1" fill="#000000" data-color="1"></path>
        <path d="M84.6 109.4H49.2c-1.3 0-2.4-1.1-2.4-2.4V88.1c0-1.3 1.1-2.4 2.4-2.4h35.3c1.3 0 2.4 1.1 2.4 2.4V107c.1 1.4-1 2.4-2.3 2.4z" fill="#ffffff" data-color="3"></path>
        <path d="M63.7 97.6c0 3.6-2.9 6.5-6.5 6.5s-6.5-2.9-6.5-6.5 2.9-6.5 6.5-6.5c3.6-.1 6.5 2.8 6.5 6.5z" fill="#f96770" data-color="5"></path>
        <path fill="#adc0d8" d="M75 101.2v1.6h-8.9v-1.6H75z" data-color="4"></path>
        <path d="M104 78.9H67c-1.1 0-1.9-.9-1.9-1.9v-8.3l.7-1.2c0-1.1.1-1.7 1.2-1.7l37 .1c1.1 0 1.1.5 1.1 1.6l.8 1.2V77c0 1-.9 1.9-1.9 1.9z" fill="#ffffff" data-color="3"></path>
        <path fill="#adc0d8" d="M74.2 74a3.1 3.1 0 11-6.2 0 3.1 3.1 0 016.2 0z" data-color="4"></path>
        <g opacity=".1">
            <path d="M111.9 104.7v.7h-18v-.7h18z" fill="#000000" data-color="1"></path>
            <path d="M103.8 107.3v.7h-9.9v-.7h9.9z" fill="#000000" data-color="1"></path>
            <path d="M111.9 113.6v.7h-18v-.7h18z" fill="#000000" data-color="1"></path>
            <path d="M103.8 116.3v.7h-9.9v-.7h9.9z" fill="#000000" data-color="1"></path>
            <path d="M147.6 83.6v1.3h-22v-1.3h22z" fill="#000000" data-color="1"></path>
            <path d="M147.6 87.4v1.3h-22v-1.3h22z" fill="#000000" data-color="1"></path>
            <path d="M133.9 91.2v1.3h-8.3v-1.3h8.3z" fill="#000000" data-color="1"></path>
            <path d="M83.9 92.3v1.6H66.1v-1.6h17.8z" fill="#000000" data-color="1"></path>
            <path d="M83.9 96.8v1.6H66.1v-1.6h17.8z" fill="#000000" data-color="1"></path>
            <path d="M102.5 71.1v.8H75.9v-.8h26.6z" fill="#000000" data-color="1"></path>
            <path d="M102.5 73.5v.8H75.9v-.8h26.6z" fill="#000000" data-color="1"></path>
            <path d="M85.9 76v.8h-10V76h10z" fill="#000000" data-color="1"></path>
        </g>
        <path d="M147.3 69.5h-33.6c-1.9 0-3.4 1.5-3.4 3.4v3.8h40.3v-3.8c.1-1.9-1.4-3.4-3.3-3.4zm-32.4 4.2c-.3 0-.6-.3-.6-.6s.3-.6.6-.6.6.3.6.6c0 .4-.2.6-.6.6zm2.7 0c-.3 0-.6-.3-.6-.6s.3-.6.6-.6.6.3.6.6c0 .4-.3.6-.6.6zm2.7 0c-.3 0-.6-.3-.6-.6s.3-.6.6-.6.6.3.6.6c0 .4-.3.6-.6.6z" fill="#adc0d8" data-color="4"></path>
        <path d="M104 65.5H67c-1.1 0-1.9.9-1.9 1.9v1.2h40.8v-1.2c0-1-.9-1.9-1.9-1.9zm-35.6 2c-.2 0-.4-.2-.4-.4s.2-.4.4-.4.4.2.4.4-.2.4-.4.4zm1.7 0c-.2 0-.4-.2-.4-.4s.2-.4.4-.4.4.2.4.4-.2.4-.4.4zm1.8 0c-.2 0-.4-.2-.4-.4s.2-.4.4-.4.4.2.4.4-.2.4-.4.4z" fill="#adc0d8" data-color="4"></path>
        <path d="M59.6 97.9l-4.2 2.4c-.3.2-.6 0-.6-.4V95c0-.3.4-.5.6-.4l4.2 2.4c.3.3.3.8 0 .9z" fill="#ffffff" data-color="3"></path>
        <path d="M152.7 82.2c-.2-.5-.5-1-1-1.3-.3-.2-.6-.4-1-.6-.9-.4-1.8-.6-2.8-.9-.2-.1-.5-.1-.7-.1-.2 0-.5.2-.6.5-.1.2-.2.3-.3.5-.3.5-.1.1-.3.6-.2.4-1.2 1.4-1.8 2.1-.1.1 0 .4.2.4.3 0 .5.1.5.1-.2.6-.3 1.2-.3 1.8 0 .5 0 .9.1 1.4s.4.8.8 1.1c.4.2.8.3 1.2.3.3 2-.1 4.7-.1 4.7h4.7v-6c.1-.1.2-.1.3-.2.3-.2.6-.4.8-.8.1-.2.2-.4.2-.7.3-1 .4-2 .1-2.9z" fill="#f5d0c6" data-color="6"></path>
        <path fill="#f5d0c6" d="M138.9 147.1v3.4h-2.2v-3.4h2.2z" data-color="6"></path>
        <path d="M139.2 149.6s.1 1.4.5 2.6c0 .2.2.3.2.4v.3l-.3.6-4.8.2v-.6c0-.1-.1-.1-.1-.2 0-.2.1-.4.3-.6.4-.6 1.8-1.9 1.6-2.8l2.6.1z" fill="#131c2d" data-color="7"></path>
        <path d="M139.1 149.6c.1 0 0 .1 0 0 0 .1 0 .1 0 0z" fill="#f96770" data-color="5"></path>
        <path d="M139.8 153v.9h-5.2v-.9h5.2z" fill="#6f757f" data-color="8"></path>
        <path d="M137 150.7h1.1c.1 0 .2-.1.2-.2s-.1-.2-.2-.2H137c-.1 0-.2.1-.2.2s.1.2.2.2z" fill="#ffffff" data-color="3"></path>
        <path d="M136.8 151.4h1.1c.1 0 .2-.1.2-.2s-.1-.2-.2-.2h-1.1c-.1 0-.2.1-.2.2.1.1.1.2.2.2z" fill="#ffffff" data-color="3"></path>
        <path fill="#f5d0c6" d="M153.2 147.1v3.4H151v-3.4h2.2z" data-color="6"></path>
        <path d="M154 113.5l-7.8-.7-7.1-.9-1.2 19.1-1.7 18h3.3l3.4-15.9s2.5-8.8 3.7-12.9l2.7 14.7 1.3 14h3.1l.8-17.6.2-16-.7-1.8z" fill="#131c2d" data-color="7"></path>
        <path d="M154 114.9c-.2 3.7-12-2.2-14.6-.9l3.1-21.6s2.9-1.1 4.1-.2c1.7 1.2 4.7 0 4.7 0l2.1.8c.1-.1.8 18.7.6 21.9z" fill="#ffffff" data-color="3"></path>
        <path d="M151.4 88.8s-2.1 9.4-2.1 14.1c0 3.9 6 16.8 6 16.8s3.7-3.9 1.8-8.4c-1.3-3-2.7-5.3-2.5-7.3V90.6l-3.2-1.8z" fill="#adc0d8" data-color="4"></path>
        <path d="M144.6 85.3c0-.6.2-1.2.3-1.8 0 0-.3-.1-.5-.1s-.3-.3-.2-.4c.6-.6 1.6-1.7 1.8-2.1.2-.5 0-.1.3-.6.1-.2.2-.3.3-.5.1-.2.3-.4.6-.5.2 0 .5 0 .7.1 1 .2 1.9.4 2.8.9.3.2.7.3 1 .6.4.3.8.8 1 1.3.3.9.2 1.9 0 2.8 0 .2-.1.5-.2.7-.2.3-.5.6-.8.8-.6.3-1.1.7-1.7.9-.4.2-.7.4-1.1.5-.6.2-1.3.2-1.9.2-.5 0-1 0-1.4-.3-.4-.2-.7-.6-.8-1.1-.2-.5-.2-1-.2-1.4z" fill="#f5d0c6" data-color="6"></path>
        <path d="M150 87.4c-.4.2-.7.4-1.1.5-.6.2-1.3.2-1.9.2h-.2c.1.3.4.5.7.5.2 0 .4 0 .5-.1.4-.1.8-.2 1.3-.3.2-.1.5-.1.7-.3s.4-.4.5-.7c-.2 0-.4.1-.5.2z" opacity=".1" fill="#000000" data-color="1"></path>
        <path d="M146.1 76.6c.9.8 2.1 1 3.3 1.2s2.4.2 3.5.6c.7.2 1.8.7 2.1 1.4.5 1 .4 2.5.1 3.5-.2.8-.6 1.5-1.1 2.1-.6.7-1.3 1-2.1 1.4-.1 0-.1.1-.2.1s-.1.1-.2.1-.2-.2-.2-.3c0-.2.1-.4.2-.6.1-.2.2-.3.3-.4.3-.4.3-.9.3-1.4v-.7c-.1-.2-.3-.4-.5-.5-.2 0-.5.1-.7.3-.4.3-.7.7-.9 1.2v-1.2c0-.3 0-.6-.1-.8-.1-.4-.4-.7-.3-1.1 0-.2.2-.3.2-.5s-.2-.5-.4-.6c-.2-.1-.5-.1-.7-.2-.4-.1-.7-.2-1.1-.3-.3-.1-.7-.2-1-.5-.3-.3-.4-.6-.5-1-.1-.4-.1-.8-.1-1.1 0-.3 0-.5.1-.7z" fill="#131c2d" data-color="7"></path>
        <path d="M162.6 105.5l-2.5-6.5c-1.5 3-4.5 1.9-4.5 1.9l2.5 4.4c.4.7.4 1.5.1 2.2l-5.1 8.2-.9.2-.6.6c-.2.2-.2.6 0 .8l.2.2-.3.5c-.1.2-.1.4 0 .6l.9 1.1c.2.2.5.3.7.1l1-.6c.2-.1.4-.3.4-.6l.1-.7 8-10.3c.2-.7.3-1.4 0-2.1z" fill="#f5d0c6" data-color="6"></path>
        <path d="M153.5 149.6s-.3 1.4.8 2.6c.1.1.2.3.2.4v.3l-.3.7h-4.4v-.4c0-.1-.2-.2-.2-.2 0-.2.1-.4.3-.6.4-.6 1.2-1.9 1-2.8h2.6z" fill="#131c2d" data-color="7"></path>
        <path d="M153.5 149.6s0 .1 0 0c0 .1 0 .1 0 0z" fill="#f96770" data-color="5"></path>
        <path d="M154.4 153v.9h-4.9v-.9h4.9z" fill="#6f757f" data-color="8"></path>
        <path d="M151.3 150.7h1.1c.1 0 .2-.1.2-.2s-.1-.2-.2-.2h-1.1c-.1 0-.2.1-.2.2.1.1.1.2.2.2z" fill="#ffffff" data-color="3"></path>
        <path d="M151.1 151.4h1.1c.1 0 .2-.1.2-.2s-.1-.2-.2-.2h-1.1c-.1 0-.2.1-.2.2l.2.2z" fill="#ffffff" data-color="3"></path>
        <path d="M151.4 88.8l3.3 2.1 1.5.7c.9.4 1.7 1.2 2.1 2.2l2.6 6c-2.8.6-3 3.1-5 2.6l-2.9-6.9-1.5-3.5v-3.2z" fill="#adc0d8" data-color="4"></path>
        <path d="M146.9 88.8l-3.3 1.4-1.8.5c-1.1.3-2.1 1.1-2.6 2.2l-3 6.1c2 0 4 2.6 4.3 2.1l.9-1.6v.2c-.2 2.6-2.8 7.5-4.1 9.8-2.2 3.7-.4 8.3-.4 8.3 1.7-.3 3.9-5.6 3.9-5.6 6.9-9.1 6.1-23.4 6.1-23.4z" fill="#adc0d8" data-color="4"></path>
        <path d="M136.5 99.2l7.1-11.5v-1.9c0-.2.1-.5.3-.6l.8-.8.9-.4c.3-.1.6.1.6.4l.1.6c0 .2 0 .4-.1.6l-.3.7c0 .1-.1.2-.2.2-.3.2-.4.5-.4.8l.1.5 1.3.2-1.6 1.2-5.1 11.9c-.5 1.1-1.7 1.5-2.7 1-1-.5-1.4-1.9-.8-2.9z" fill="#f5d0c6" data-color="6"></path>
        <g opacity=".1">
            <path d="M146.5 84.4h-.1l.1.4c0 .2 0 .4-.1.6l-.3.7c0 .1-.1.2-.2.2-.2.1-.4.4-.4.7l.4-.2c0-.3.2-.5.5-.6.1 0 .2-.1.2-.2l.3-.5c.1-.1.1-.3.1-.4v-.4c0-.2-.3-.4-.5-.3z" fill="#f5d0c6" data-color="6"></path>
            <path d="M146.5 84.4h-.1l.1.4c0 .2 0 .4-.1.6l-.3.7c0 .1-.1.2-.2.2-.2.1-.4.4-.4.7l.4-.2c0-.3.2-.5.5-.6.1 0 .2-.1.2-.2l.3-.5c.1-.1.1-.3.1-.4v-.4c0-.2-.3-.4-.5-.3z" fill="#000000" data-color="1"></path>
        </g>
        <path d="M85.1 135.3c.7.3.9 1.2.6 1.9-.3.7-.9 1.2-1.5 1.6-.6.5-1.2 1-1.4 1.7-.2.9.2 2-.4 2.8-.4.5-1.1.7-1.8.6s-1.3-.3-1.9-.4-1.4 0-1.8.5c-.1-1.1-.1-2.3.6-3.2.2-.3.6-.6.9-.8 1.1-.7 2.3-1.1 3.4-1.8s2-1.8 2.1-3.1" fill="#f96770" data-color="5"></path>
        <path d="M106.6 138.8c-.1-.1-.3 0-.3.1L99 152v.2H81.5c-.3 0-.5.2-.5.5v.6c0 .3.2.5.5.5h18.7c.3 0 .5-.2.5-.5v-.6c0-.3-.2-.5-.5-.5h-.8l7.3-13.1c0-.1 0-.2-.1-.3z" fill="#131c2d" data-color="7"></path>
        <path d="M85.1 135.3c.7.3.9 1.2.6 1.9-.3.7-.9 1.2-1.5 1.6-.6.5-1.2 1-1.4 1.7-.2.9.2 2-.4 2.8-.4.5-1.1.7-1.8.6s-1.3-.3-1.9-.4-1.4 0-1.8.5c-.1-1.1-.1-2.3.6-3.2.2-.3.6-.6.9-.8 1.1-.7 2.3-1.1 3.4-1.8s2-1.8 2.1-3.1" opacity=".2" fill="#000000" data-color="1"></path>
        <path fill="#f5d0c6" d="M30.9 136.6l-2.4 1.7 2.5 3.5 2.4-1.7-2.5-3.5z" data-color="6"></path>
        <path d="M29.2 139.2l-5.9.6-1.3.7c-.4.2-.9.1-1.1-.3l-.5-.7 8.4-5.9c.5-.3 1.1-.2 1.4.2l.5.7c.5.7.8 1.5.9 2.3l.1.7c-.4-.5-1.1-.7-1.6-.3l-.5.3c-.7.5-.8 1.2-.4 1.7z" fill="#f96770" data-color="5"></path>
        <path d="M29.1 134.4l-8.2 5.8c-.2.1-.4.1-.5-.1l-.3-.4 8.5-6c.5-.3 1.1-.2 1.5.2l.5.7c-.4-.5-1-.6-1.5-.2z" opacity=".2" fill="#000000" data-color="1"></path>
        <path fill="#f5d0c6" d="M45.4 136.3l-2.8-.7-1 4.2 2.9.7.9-4.2z" data-color="6"></path>
        <path d="M42.3 136.8l-4.4-4-1.4-.5c-.4-.1-.7-.6-.6-1l.2-.9 10 2.2c.6.1.9.7.8 1.2l-.2.8c-.2.8-.6 1.6-1.1 2.2l-.4.5c.1-.6-.3-1.3-.9-1.4l-.6-.1c-.6-.1-1.3.3-1.4 1z" fill="#f96770" data-color="5"></path>
        <path d="M45.9 133.5l-9.8-2.2c-.2 0-.3-.2-.3-.4l.1-.5 10.2 2.3c.6.1.9.7.8 1.2l-.2.8c.1-.6-.3-1.1-.8-1.2z" opacity=".2" fill="#000000" data-color="1"></path>
        <path d="M58.7 153.7l-1.1-9.6-1.2.1c-2.9.3-5.7 1.1-8.3 2.4l-4.9 2.5c-.4.2-.9-.2-.8-.6l3.1-11.2h-3.8l-3.2 7.8-6.3-6.9-2.7 2 7.1 9.6c-.3 1.8 1 3.6 2.9 3.9h19.2z" fill="#6f757f" data-color="8"></path>
        <path d="M37 149.1l1.6-4-.7-.7L36 149l.7.9c.1-.3.2-.5.3-.8z" opacity=".2" fill="#000000" data-color="1"></path>
        <path d="M81.1 139.1l.1-.2c-.1 0-.1.1-.1.2z" opacity=".56" fill="#000000" data-color="1"></path>
        <path d="M86.3 136.1c-1-1.4-2.6-3-4.3-2.2-.4.2-.7.5-1 .9-.5.7-1 1.4-1.3 2.3 0 .1-.1.2-.1.3l-.1-.1s-.5 2.4-2.8 2.9c-3.3.7.9 3.8.9 3.8l3.4-2.5c.6.5 1.4.7 2.2.8.7.1 1.4.1 1.9-.5.1-.2.2-.4.3-.7.1-.2.1-.4.2-.6 0-.1.8-.1.9-.1.1 0 .1-.1.1-.1-.4-1.5.6-3-.3-4.2z" fill="#f5d0c6" data-color="6"></path>
        <path d="M80.6 141c-.2-.2-.3-.5-.5-.9-.1.3-.1.5 0 .8.1.2.1.3.2.5l.3.3.4-.3-.4-.4z" opacity=".1" fill="#000000" data-color="1"></path>
        <path d="M78.5 143.9c0-.4-.1-.8-.1-1.3 0-.7-.3-1-.7-1.5-.2-.3-.3-.6-.5-.8-.2-.3-.5-.4-.9-.6-.3-.1-.7-.4-1-.7-.4-.7-2.2-.4-2.8.2l-2.5 1.9c-3.7 2.9-8.6 3.9-13.1 2.7-2 3.9.5 9.9.5 9.9l4.5-.6c1.1 0 2.1-.3 3.1-.7l5.5-2.5.9.5c1.3.7 3 .2 3.8-1.1l1.8-3-.6-2.4h2.1z" fill="#adc0d8" data-color="4"></path>
        <path d="M95.5 152.7l-2.1-.6-2.3-.4-10.8-1.2c-.4-.1-.7-.4-.8-.8l-1-6c-1.6 0-3.5.1-4 2l2.5 6.6c.3.9 1.2 1.5 2.1 1.4l13.2-.2h4.2c.4 0 .8-.5.8-.9l-1.8.1z" fill="#f5d0c6" data-color="6"></path>
        <path d="M87.9 136.2c-.1-.1-.2-.3-.3-.4v-.2c0-.4-.1-.7-.2-1.1.1-.1.2-.3.3-.4-.3 0-.5-.1-.7-.3-.2-.3-.4-.6-.7-.8-.1-.2-.2-.4-.4-.5-.6-.6-1.5-.9-2.3-.6h-1.2c-1.1 0-2.2-.1-3.2.1s-2.1.9-2.3 2c-.1.6 0 1.3-.3 1.8-.1.2-.3.4-.5.6-.8.8-1.4 1.9-1.3 3.1 0 1.2.7 2.3 1.7 2.8.1-.8 1.1-1.1 1.8-1.5.9-.5 1.6-1.4 2-2.4.4-1 .8-1.1 1.2-2.1 1 .5 1.3.3 2.5.5.6.1 1.2 0 1.8-.1l.9.3c.8.2 1.6.1 2.2-.2-.5-.1-.8-.3-1-.6z" fill="#f96770" data-color="5"></path>
        <path fill="#f5d0c6" d="M81.988 135.702c.426.118.628.73.452 1.37-.177.639-.665 1.06-1.091.943-.426-.118-.628-.73-.452-1.37.177-.639.665-1.06 1.091-.943z" data-color="6"></path>
    </g>
</svg>