<svg preserveAspectRatio="xMidYMid meet" data-bbox="20.026 37.893 159.99 124.107" viewBox="20.026 37.893 159.99 124.107" height="200" width="200" xmlns="http://www.w3.org/2000/svg" data-type="color" role="presentation" aria-hidden="true" aria-labelledby="svgcid-lkcu6u1d7rdq"><defs><style>#comp-kckjjirf svg [data-color="1"] {fill: #000000;}
#comp-kckjjirf svg [data-color="2"] {fill: #E6F0FF;}
#comp-kckjjirf svg [data-color="3"] {fill: #F5D0C6;}
#comp-kckjjirf svg [data-color="4"] {fill: #FFFFFF;}
#comp-kckjjirf svg [data-color="5"] {fill: #1F232C;}
#comp-kckjjirf svg [data-color="6"] {fill: #FC5C65;}
#comp-kckjjirf svg [data-color="7"] {fill: #5D6A83;}
#comp-kckjjirf svg [data-color="8"] {fill: #ACB2BD;}</style></defs><title id="svgcid-lkcu6u1d7rdq"></title>
    <g>
        <path opacity=".2" d="M104.2 161.1c0 .387-6.268.7-14 .7s-14-.313-14-.7c0-.387 6.268-.7 14-.7s14 .313 14 .7z" fill="#000000" data-color="1"></path>
        <path opacity=".2" d="M158 161.1c0 .387-6.268.7-14 .7s-14-.313-14-.7c0-.387 6.268-.7 14-.7s14 .313 14 .7z" fill="#000000" data-color="1"></path>
        <path d="M175.5 131.2c-2.7-2.2-5.5-4.1-8.5-5.6.2-1.4.2-2.9 0-4.4-1-7.2-7.6-14.2-15.4-13.6-.3 0-.6 0-.8.1-.1-1-.2-2-.5-3-1.8-5.6-6-9.6-11.4-11-1.3-2.1-3-3.9-5.2-5.1-3.7-2-7.4-2.4-11.5-1.7-.2-.3-.4-.5-.7-.8 8.9-6.4 17.9-12.8 26.9-19.1 6.4-4.5 9.6-12 6.4-19.6-1.3-3-3.4-5.9-6.4-7.5-3.9-2.1-7.7-2.4-12.1-1.6-30.3 5.4-59.7 15.8-86.8 30.3-7.4 4-14.7 8.2-21.7 12.8-6.9 4.5-10.3 14.1-5.6 21.5 4 6.3 12.4 9.8 19.3 6.7-5.6 5.3-5.4 14.7-1 20.4 4.8 6.3 13.2 7.8 20.2 4.1 5.9-3.2 11.9-6.1 18-8.9-1.3 3.5-1.4 7.4.3 11.3 3.2 7.6 10.7 10.6 18.5 9.1l4.5-.9c0 .2.1.3.1.5 1.2 3.8 3.6 7.5 7.2 9.4 4 2.1 7.7 2.3 12.1 1.6 1.2-.2 2.3-.3 3.5-.5 5-.6 10.1-1.1 15.1-1.5 4.3-.3 8.6-.6 12.9-.3.5.1 1 .2 1.5.4.6.3 1.1.7 1.6 1.1-.1-.1-.2-.2-.4-.3 2.6 1.8 5.4 2.9 8.8 2.9 3.8 0 8.4-1.7 11.1-4.6 5.3-5.7 6.7-16.5 0-22.2z" fill="#e3edfc" data-color="2"></path>
        <path fill="#f5d0c6" d="M147.5 89.3c0 .663-.269 1.2-.6 1.2-.331 0-.6-.537-.6-1.2 0-.663.269-1.2.6-1.2.331 0 .6.537.6 1.2z" data-color="3"></path>
        <path d="M144.3 71.7h-10.5l-.2-.9.1-3.8c.2-1.3.1-1.8-1.2-1.8L82 65c-1.2 0-1.8.8-2 2l-1.3 4-.1 1H60.7c-.5 0-.9.4-1 .9l-1.8 12.7c-.1.5.3.9.7.9h17.7l-.2 1.5H57.6c-.3 0-.7.3-.7.6l-2.4 17.5c0 .3.2.6.5.6h18.1l-4 25.7c-.2 1.5.8 2.2 2.3 2.2l28.2.3-.5 3.5c-.1.7 0 1.4.4 1.9.4.7 1.2 1.2 2.2 1.2H122c1.7 0 3.2-1.4 3.5-3.1l4.8-31.1c.2-1.3-.5-2.5-1.6-2.9l-.1-.5 4-25h10.7c.4 0 .8-.4.9-.8l.8-5.7c0-.3-.3-.7-.7-.7z" fill="#ffffff" data-color="4"></path>
        <g opacity=".1">
            <path d="M70.4 91.2c-1.8 0-3.6.8-5 2-.2.1-.3.3-.5.5l.4.4c-1 .9-1.7 2.1-1.9 3.4h-.5c0 .2-.1.3-.1.5-.5 3.7 2.1 6.7 5.8 6.7 1.8 0 3.6-.8 5-2s2.4-2.9 2.6-4.8c.5-3.7-2.1-6.7-5.8-6.7zm3.8 6.7c-.2 1.3-.9 2.5-1.9 3.4s-2.3 1.4-3.6 1.4c-2.6 0-4.5-2.2-4.1-4.8.2-1.3.9-2.5 1.9-3.4s2.3-1.4 3.6-1.4c2.7 0 4.5 2.1 4.1 4.8z" fill="#000000" data-color="1"></path>
            <path d="M78.1 95h10.8l.1-1.1H78.2l-.1 1.1z" fill="#000000" data-color="1"></path>
            <path d="M77.6 97.9h10.9l.1-1H77.8l-.2 1z" fill="#000000" data-color="1"></path>
            <path d="M77.2 100.9h6.2l.2-1h-6.2l-.2 1z" fill="#000000" data-color="1"></path>
            <path d="M106.1 119.8h1.2l1.9-11.8h-1.3l-1.8 11.8z" fill="#000000" data-color="1"></path>
            <path d="M109.8 115.9h1.3l1.2-7.9h-1.2l-1.3 7.9z" fill="#000000" data-color="1"></path>
            <path d="M114.5 114l.9-6h-1.2l-.9 6h1.2z" fill="#000000" data-color="1"></path>
            <path d="M117.3 115.9l1.2-7.9h-1.2l-1.2 7.9h1.2z" fill="#000000" data-color="1"></path>
            <path d="M119.8 112.1h1.2l.6-4.1h-1.2l-.6 4.1z" fill="#000000" data-color="1"></path>
            <path d="M123.2 110h1.3l.3-2h-1.2l-.4 2z" fill="#000000" data-color="1"></path>
            <path d="M110.1 133.1h10.8l.1-.7h-10.8l-.1.7z" fill="#000000" data-color="1"></path>
            <path d="M109.8 135.1h10.8l.1-.7h-10.8l-.1.7z" fill="#000000" data-color="1"></path>
            <path d="M109.6 137.1h4.5l.1-.7h-4.5l-.1.7z" fill="#000000" data-color="1"></path>
            <path d="M97.6 91.5h1.3l.1-.7h-1.3l-.1.7z" fill="#000000" data-color="1"></path>
            <path d="M107.3 92.6h9.9l.1-.7h-10v.7z" fill="#000000" data-color="1"></path>
            <path d="M107 94.4h9.9l.1-.6h-9.9l-.1.6z" fill="#000000" data-color="1"></path>
            <path d="M106.7 96.3h10l.1-.7h-10l-.1.7z" fill="#000000" data-color="1"></path>
            <path d="M106.5 98.1h5.7l.1-.6h-5.7l-.1.6z" fill="#000000" data-color="1"></path>
            <path d="M97.4 93.3h1.2l.1-.6h-1.3v.6z" fill="#000000" data-color="1"></path>
            <path d="M97.1 95.1h1.3l.1-.6h-1.3l-.1.6z" fill="#000000" data-color="1"></path>
            <path d="M96.8 97h1.3l.1-.7h-1.3l-.1.7z" fill="#000000" data-color="1"></path>
            <path d="M96.6 98.8h1.3l.1-.7h-1.3l-.1.7z" fill="#000000" data-color="1"></path>
            <path d="M96.3 100.6h1.3l.1-.6h-1.3l-.1.6z" fill="#000000" data-color="1"></path>
            <path d="M102.6 95.3h-3c-.2 1.7.9 3.1 2.6 3.1.8 0 1.6-.3 2.3-.9l-1.9-2.2z" fill="#000000" data-color="1"></path>
            <path d="M124 88c-2.3 1.7-4.7 1.8-6.8.5-4.4-2.6-6.3-9.5-13.1-7-5.2 1.9-8 7.2-12.1 10.6v.6c4.4-3.5 7.3-9.2 12.8-10.9 7.5-2.2 8.5 7.6 14.9 8.1 2.4.2 4.4-1.4 6.2-3 1.6-1.4 3.3-2.5 5.1-3.4l.1-.6c-1.3.6-2.6 1.3-3.8 2.2-1.1 1-2.1 2-3.3 2.9z" fill="#000000" data-color="1"></path>
            <path d="M128.4 74.2l-.1.6h12.6l.1-.7-12.6.1z" fill="#000000" data-color="1"></path>
            <path d="M128 76.4h9.3l.1-.6h-9.3l-.1.6z" fill="#000000" data-color="1"></path>
            <path d="M85.9 77.6H89l.1-.8h-3l-.2.8z" fill="#000000" data-color="1"></path>
            <path d="M86.2 75.7h10.5l.1-.8H86.3l-.1.8z" fill="#000000" data-color="1"></path>
            <path d="M65.6 75.8c.1-1-.5-1.7-1.5-1.7s-1.9.8-2 1.7.5 1.7 1.5 1.7 1.9-.7 2-1.7z" fill="#000000" data-color="1"></path>
            <path d="M78.6 76.3h-10l-.1.7h9.9l.2-.7z" fill="#000000" data-color="1"></path>
            <path d="M72.4 80.9h-4.6l-.1.7h4.6l.1-.7z" fill="#000000" data-color="1"></path>
            <path d="M74.6 82.6h-7l-.1.8h7l.1-.8z" fill="#000000" data-color="1"></path>
            <path d="M83.7 68.5c.4 0 .7-.3.8-.7.1-.4-.2-.7-.6-.7s-.7.3-.8.7c0 .4.2.7.6.7z" fill="#000000" data-color="1"></path>
            <path d="M86.6 68.5c.4 0 .7-.3.8-.7.1-.4-.2-.7-.6-.7s-.7.3-.8.7c0 .4.3.7.6.7z" fill="#000000" data-color="1"></path>
            <path d="M89.6 68.5c.4 0 .7-.3.8-.7.1-.4-.2-.7-.6-.7-.4 0-.7.3-.8.7 0 .4.2.7.6.7z" fill="#000000" data-color="1"></path>
        </g>
        <path d="M68.9 92.6l.3-1.9c-1.8 0-3.6.8-5 2l1.2 1.4c.9-1 2.1-1.5 3.5-1.5z" fill="#131c2d" data-color="5"></path>
        <path d="M63.4 97.4c.2-1.3.9-2.5 1.9-3.4l-1.2-1.4c-1.4 1.2-2.4 2.9-2.6 4.8h1.9z" opacity=".2" fill="#000000" data-color="1"></path>
        <path d="M129.3 104.9c.4.5.5 1.2.4 2l-4.8 31.1c-.3 1.7-1.8 3.1-3.5 3.1h-20.3c-.6 0-1.1-.2-1.6-.5.5.6 1.2 1.1 2.1 1.1H122c1.7 0 3.2-1.4 3.5-3.1l4.8-31.1c.2-1.2-.2-2.1-1-2.6z" opacity=".2" fill="#000000" data-color="1"></path>
        <path fill="#f96770" d="M82.2 75.2H68.7l.1-.7h13.6l-.2.7z" data-color="6"></path>
        <path d="M58.7 86.4h25.2c.5 0 .9-.4 1-.9l1.8-12.7c.1-.4-.1-.7-.4-.8 0 .1.1.3 0 .4l-1.8 12.7c-.1.5-.5.9-1 .9H58.3c-.1 0-.2 0-.3-.1.1.3.3.5.7.5z" opacity=".2" fill="#000000" data-color="1"></path>
        <path d="M92 88l-2.5 17.5c0 .3-.4.6-.7.6H54.5c0 .3.2.6.5.6h34.4c.3 0 .7-.3.7-.6l2.4-17.5c.1-.3-.1-.6-.5-.6z" opacity=".2" fill="#000000" data-color="1"></path>
        <path opacity=".2" d="M60.7 89.5h-2.1l-.2 1.1h2.1l.2-1.1z" fill="#000000" data-color="1"></path>
        <path opacity=".2" d="M58 93.5h2.1l.2-1h-2.1l-.2 1z" fill="#000000" data-color="1"></path>
        <path opacity=".2" d="M59.9 95.4h-2.1l-.2 1h2.1l.2-1z" fill="#000000" data-color="1"></path>
        <path opacity=".2" d="M59.5 98.3h-2.1l-.2 1.1h2.1l.2-1.1z" fill="#000000" data-color="1"></path>
        <path opacity=".2" d="M59.1 101.2H57l-.1 1.1h2l.2-1.1z" fill="#000000" data-color="1"></path>
        <path opacity=".2" d="M58.7 104.1h-2.1l-.1 1.1h2l.2-1.1z" fill="#000000" data-color="1"></path>
        <path d="M144.5 71.8c0 .1.1.2 0 .4l-.8 5.7c-.1.4-.5.8-.9.8h-23.5c-.1 0-.2 0-.3-.1.1.3.3.4.6.4h23.5c.4 0 .8-.4.9-.8l.8-5.7c.2-.3 0-.6-.3-.7z" opacity=".2" fill="#000000" data-color="1"></path>
        <path d="M118.5 89.9l-1.5 10.7c0 .3-.3.5-.6.5H95.1c0 .3.2.5.4.5h21.2c.3 0 .5-.2.6-.5l1.5-10.7c.1-.3 0-.5-.3-.5z" opacity=".2" fill="#000000" data-color="1"></path>
        <path d="M69.1 90.7l-.3 1.9c2.6 0 4.5 2.2 4.1 4.8-.2 1.3-.9 2.5-1.9 3.4l1.2 1.4c1.4-1.2 2.4-2.9 2.6-4.8.6-3.7-2-6.7-5.7-6.7z" fill="#505764" data-color="7"></path>
        <path fill="#505764" d="M104.7 129h1.2l1.4-9.2h-1.2l-1.4 9.2z" data-color="7"></path>
        <path fill="#505764" d="M109.8 115.9l-2 13.1h1.2l2.1-13.1h-1.3z" data-color="7"></path>
        <path fill="#505764" d="M113.3 114l-2.4 15h1.3l2.3-15h-1.2z" data-color="7"></path>
        <path fill="#505764" d="M116.1 115.9l-2 13.1h1.2l2-13.1h-1.2z" data-color="7"></path>
        <path fill="#505764" d="M119.8 112.1l-2.6 16.9h1.2l2.6-16.9h-1.2z" data-color="7"></path>
        <path fill="#505764" d="M123.2 110l-2.9 19h1.2l3-19h-1.3z" data-color="7"></path>
        <path d="M105.8 95.1c.2-1.7-.9-3.1-2.6-3.1l-.4 3.1 1.8 2.2c.6-.6 1.1-1.3 1.2-2.2z" fill="#505764" data-color="7"></path>
        <path d="M67.5 102.2c-2.6 0-4.5-2.2-4.1-4.8h-1.9c-.5 3.7 2.1 6.7 5.8 6.7 1.8 0 3.6-.8 5-2l-1.2-1.4c-1 1-2.2 1.5-3.6 1.5z" fill="#f96770" data-color="6"></path>
        <path d="M100.8 92.9c-.6.6-1.1 1.3-1.2 2.2h3l.4-3.1c-.8 0-1.6.4-2.2.9z" fill="#f96770" data-color="6"></path>
        <path d="M106.5 132c-1.4 0-2.6 1.1-2.8 2.5s.8 2.5 2.1 2.5c1.4 0 2.6-1.1 2.8-2.5.2-1.4-.8-2.5-2.1-2.5z" fill="#adc0d8" data-color="8"></path>
        <path d="M125.4 75.3c.1-.9-.5-1.6-1.4-1.6s-1.7.7-1.9 1.6c-.1.9.5 1.6 1.4 1.6s1.8-.7 1.9-1.6zm-2.6.1l.3-.3.4.4 1.1-.9.3.3-1.4 1.2-.7-.7z" fill="#adc0d8" data-color="8"></path>
        <path d="M63.1 80.4c-1 0-1.9.8-2 1.7s.5 1.7 1.5 1.7 1.9-.8 2-1.7c.1-.9-.5-1.7-1.5-1.7z" fill="#adc0d8" data-color="8"></path>
        <path d="M132.8 64.6h-51c-1.2 0-2.2.9-2.4 2.1l-.6 4.3H133l-.1.7h.9l.1-.7.6-4.2v-.2c.2-1-.6-2-1.7-2zm-48.4 3.2c-.1.4-.4.7-.8.7s-.6-.3-.6-.7c.1-.4.4-.7.8-.7.4.1.7.4.6.7zm3 0c-.1.4-.4.7-.8.7s-.6-.3-.6-.7c.1-.4.4-.7.8-.7s.6.4.6.7zm2.9 0c-.1.4-.4.7-.8.7s-.5-.3-.5-.7c.1-.4.4-.7.8-.7.3.1.6.4.5.7z" fill="#adc0d8" data-color="8"></path>
        <path d="M131.4 81.1c-1.3.6-2.5 1.3-3.7 2.2-1.2.9-2.2 1.9-3.4 2.7-2.3 1.7-4.7 1.8-6.8.5-4.4-2.6-6.3-9.5-13.1-7-5.2 1.9-8 7.2-12.1 10.6l-.1.6c4.4-3.5 7.3-9.2 12.8-10.9 7.5-2.2 8.5 7.6 14.9 8.1 2.4.2 4.4-1.4 6.2-3 1.6-1.3 3.3-2.5 5.1-3.3l-3.5 22.7c.3 0 .6.1.9.2l3.9-25.5h-.9l-.2 2.1z" fill="#adc0d8" data-color="8"></path>
        <path d="M69.4 133.9c.4.8 1.2 1.4 2.2 1.4h28l.1-1H70.8c-.5.1-1-.1-1.4-.4z" fill="#adc0d8" data-color="8"></path>
        <path d="M148.3 151.2c-.3-.2-.6-.4-.9-.8-.9.6-1.2 1-1.4 2.1 0 .2 0 .5-.1.7.2.5.3 1.1.2 1.6v.3s1.1 2.4 1.8 2.2c1.4-.5 2.9-4 2.4-4.6-.2-.4-1.1-1-2-1.5z" fill="#f5d0c6" data-color="3"></path>
        <path d="M146.7 157.6c-.2-.6-.6-.9-.7-1.7 0-.2 0-.5-.1-.8-1.2-1.2-1-1.7-1.9-2-.2-.2-.8.9-1.6 1.4-.3 2-.4 2-.7 2.5 2.7 3.8 5 .6 5 .6z" fill="#f5d0c6" data-color="3"></path>
        <path d="M146.1 152.5c.7-.5 1.1-1.2 1.4-2.1-.3-.3-.6-.8-1-1.2-.2 1.1-.4 2.3-.4 3.3z" fill="#adc0d8" data-color="8"></path>
        <path d="M150.6 121.9c-.3-.7-12.8-4.6-12.8 1 3.8 3.3 3.8 4.8 3.8 4.8s1.9 20.5.9 26.7v.1c.4.1.8.1 1 .3.9.3 1.7.4 2.5.2-.3-7.1 5.8-30.1 4.6-33.1z" fill="#adc0d8" data-color="8"></path>
        <path d="M142.8 147.9v-1.7c0-.2 0-1.3-.1-1.7v-.9c0-.6-.1-1.2-.1-1.8-.5-1.2-.9-2-.9-2l.6-2.2c0-.7-.1-1.3-.1-2v-3.5c0-.2 0-.5-.1-.7 0-.6-.1-1.1-.1-1.6v-.6c0-.2 0-.5-.1-.6 0-.4-.1-.6-.1-.7v-.1s0-.2-.2-.7v-.1c-.4-.7-1.3-2-3.5-4v-.8c0-.2.1-.3.2-.4l-.2-.1-1.2 16.6c-.4 1.1-.3 2.4.5 3.4l5.6 7.2c-.2-.5-.2-.7-.2-1z" fill="#adc0d8" data-color="8"></path>
        <path d="M146.1 152.5c.7-.5 1.1-1.2 1.4-2.1-.3-.3-.6-.8-1-1.2-.2 1.1-.4 2.3-.4 3.3z" opacity=".1" fill="#000000" data-color="1"></path>
        <path d="M142.8 147.9v-1.7c0-.2 0-1.3-.1-1.7v-.9c0-.6-.1-1.2-.1-1.8-.5-1.2-.9-2-.9-2l.6-2.2c0-.7-.1-1.3-.1-2v-3.5c0-.2 0-.5-.1-.7 0-.6-.1-1.1-.1-1.6v-.6c0-.2 0-.5-.1-.6 0-.4-.1-.6-.1-.7v-.1s0-.2-.2-.7v-.1c-.4-.7-1.3-2-3.5-4v-.8c0-.2.1-.3.2-.4l-.2-.1-1.2 16.6c-.4 1.1-.3 2.4.5 3.4l5.6 7.2c-.2-.5-.2-.7-.2-1z" opacity=".1" fill="#000000" data-color="1"></path>
        <path d="M150.1 93.2c-.3 1 .1 2.2.9 2.9.4.5.9.8 1.5 1.2.5.3.4 1-.2 1.1-.5.1-1 .1-1.5 0l-1.3-4.5.6-.7z" fill="#f96770" data-color="6"></path>
        <path d="M150.1 93.2c-.3 1 .1 2.2.9 2.9.4.5.9.8 1.5 1.2.5.3.4 1-.2 1.1-.5.1-1 .1-1.5 0l-1.3-4.5.6-.7z" opacity=".3" fill="#000000" data-color="1"></path>
        <path d="M143.1 90.2c.2.9-.8 2-.8 2.8-.1 1.6 1.2 3.1 2.5 4.1.1.1.3.2.4.2.1 0 .2-.1.2-.2.8-.9 1.7-1.8 2-3 .2-.9.1-1.8-.4-2.5s-1.2-1.3-2-1.6" fill="#f96770" data-color="6"></path>
        <path d="M149.2 151.5l-.2.4s1.3 2.8-2.8 3.1c0 0-.1 1.2-.4 3.3 0 0-1.6 1.2-2.1 1.8-.3.3-.1.9.3 1.1.2.1.5.1.7 0l2.2-.4c.4-.1.7-.3.9-.6l4.5-6.5-3.1-2.2z" fill="#f96770" data-color="6"></path>
        <path d="M146.7 157.6s-2.3 3.2-5-.6c0 0-2.5 2.5-5.5 3-.4.1-.8.4-.8.9 0 .3.3.6.6.6h11.1v-3.9h-.4z" fill="#f96770" data-color="6"></path>
        <path d="M151.9 153.5l-4.5 6.4-.3.3v.6c.3-.1.5-.3.7-.5l4.5-6.5-.4-.3z" opacity=".2" fill="#000000" data-color="1"></path>
        <path d="M136 160.8h11.1v.6H136c-.3 0-.6-.3-.6-.6 0-.1 0-.2.1-.3.1.2.3.3.5.3z" opacity=".2" fill="#000000" data-color="1"></path>
        <path d="M147.8 95.7c-.1-1.3-.2-2.5-.2-2.8.6-.7 1.1-1.6 1.1-3v-3.7s-5-1.5-6.2 0c-.5.6-.4 3.4-1.2 5-.1.1 0 .3.1.3s.3.1.3.2c.6 2.1 1 2.6 2.5 2.6h.2v1.5h-.2v1.4c-.1.5-.3.9-.6 1.2-.2.2.1.3.6.5v2.6h4.9v-5.7c-.1-.1-1.3-.1-1.3-.1z" fill="#f5d0c6" data-color="3"></path>
        <path d="M147.2 93.2c-1.1.8-2.4 1-2.9 1 .3.2.9.4 1.5.2.2 0 1.4-.8 1.4-1.2.1.1 0 .1 0 0z" opacity=".1" fill="#000000" data-color="1"></path>
        <path d="M137.3 98.6c-.1 0-.1.1-.2.1l-5.2 1.4c-.4.1-.7 0-.9-.3l-4.2-5.6-1.6-2.3-.5-1.5c-.1-.4-.5-.7-.9-.7h-1.2l-3.9-.8c0 .4.3.7.7.8l2 .8c-.2-.1-.4 0-.6.1-.3.2-.3.6-.1.9l.8 1c.1.3.4.6.7.7l1.3.6.5.5.7 1.3 2.7 6.6c.4 1 1.4 1.7 2.5 1.8 2.2.3 5.9.6 8.2-.8.4-1.8.3-3.3-.8-4.6z" fill="#f5d0c6" data-color="3"></path>
        <path d="M153.2 104.3l.3-3c-.4-3.9-2.3-3.8-2.3-3.8-.1 0-.2.1-.3.1l-1.3-1.2-2.7 1c-1.2.4-2.5-.2-2.9-1.4l-.1-.2h-2c-.5 0-1 .1-1.3.4l-2.9 2.2c-.2.1-.4.2-.5.3.6 1.4.9 3 .7 4.5.1-.1.3-.2.4-.3 0 0 .4.1-.1 1.6-.4 1.3-.2 2.6.7 3.6l-2.8 26.9s7.7 2.3 16.7 1.2c0 0 .9-15.1-2.8-22.4.1-.1 2.9-9 3.2-9.5z" fill="#131c2d" data-color="5"></path>
        <path d="M152.3 113.1l.9-8.8c-1.4-.4-2.9-.3-4.4.2v7.8l-2 10.6h.1l-.8 1.9c-.2.4-.1.9.2 1.2l.4.4.2 1.8c0 .4.1.9.6.9.4 0 .7-.2.8-.6l.5-.6c.1-.2.2-.3.3-.5l.2-.8c0-.2.1-.4 0-.5l-.4-3.1h.1l3.3-9.9z" fill="#f5d0c6" data-color="3"></path>
        <path d="M140.7 86.3c.2.6.7 1 1.3 1.1.6.1 1.2 0 1.8-.3.5-.2.9-.5 1.4-.5s1.1.2 1.2.7c.1.2 0 .5.1.7.1.5.6.9.8 1.4.4 1.1-1.1 2.1-1.1 3.3 0 .9.9 1.6 1.1 2.4.1.3.1.7.2 1 .3 1.2 2.7 1.4 4.3 1.4.4 0 .6-.5.3-.7-1-.8-1.3-1.9-1.3-2 .2-1.3.5-2.6-.1-3.7-.2-.4-.2-.8-.3-1.3-.1-.7 0-1.5.1-2.2.2-.9-.2-2-1-2.6-.7-.6-1.6-1-2.5-1.2-.9-.3-1.8-.4-2.7-.5-.6-.1-1.2.8-1.7 1-.6.4-2.1 1.1-1.9 2z" fill="#f96770" data-color="6"></path>
        <path d="M142.2 136c0 .5.1 1 .1 1.6l.3-1 .1-.6c-.2.1-.3.1-.5 0z" opacity=".4" fill="#000000" data-color="1"></path>
        <path d="M52.2 122.9l15.1-3.3 2.5-.3 2.7-1.2c.3-.1.5-.4.6-.6l.3-.8c.1-.3 0-.6-.3-.7l-.3-.1c-.2-.3-.5-.5-.9-.5l-2.7.2-.6-.4.6-1.3c.1-.3 0-.7-.3-.9l-1.4 1.8-1 2.2-8.3 1.1-6-1.1v5.9z" fill="#f5d0c6" data-color="3"></path>
        <path d="M80.3 153.5s.4 3-.6 4.4c-.9 1.3 6.3 0 6.3 0s-2.4-.7-2.7-1.4c-.3-.6.5-3.4.5-3.4l-3.5.4z" fill="#f96770" data-color="6"></path>
        <path d="M89.3 137.7l-2.2 2.8s1.9.8 2.7 2.6c.6 1.4 4-4.8 4-4.8s-1.2 1.4-2.8 1.3" fill="#f96770" data-color="6"></path>
        <path d="M61.3 127.4c-1.1-.8-1.9-1.9-2.5-3.1l-2.6-5.7c-.8-1.8-2.7-3-4.7-3h-3.1c-.6 0-1.2.5-1.3 1.1l-.5 2.8c-.3 1.6-.1 3.2.6 4.7l6.6 14.4h9.6l5.3-5.4-7.4-5.8z" fill="#ffffff" data-color="4"></path>
        <path d="M79.5 157v3.2c0 .4.3.7.8.7h9.3c.8 0 1.4-.5 1.4-1.3v-.3l-2.9-.4-.9-.5h-.3l-.1-.2-.4-.2h-.3l-.1-.2-.4-.2h-.2l-.2-.2-.4-.2-.2-.1-.2-.1-.3-.1-.8-.4-.6.9-2.1.1-.7-.6c-.2-.2-.4-.1-.4.1z" fill="#131c2d" data-color="5"></path>
        <path d="M90.2 138.3L77 126.1c-.5-.4-1.2-.6-1.8-.3l-12.3 4.4c-2.9 1-5 2.2-6.4 4.9l9.3 2.8v.6l12 .7s2-.3 2 .2c-.2 1.1-.6 2.9-.3 4.7.9 4.7.6 10.9.6 10.9h3.6l1.7-15.7c1.4 1 2.3 1.8 2.3 1.8l2.5-2.8z" fill="#131c2d" data-color="5"></path>
        <path d="M89 142.8l2.5 2.1c.4.3.8.1 1.1-.2l5.8-7.2c.5-.6.4-1.4-.2-1.9l-.2-.2-.1.1-2 1.9-1 .4-.2.2h-.2l-.5.2-.2.2-.2-.1-.5.2-.2.3-.2-.1-.5.2-.2.3-.2-.1-.2.1-.8.4.3 1-1.2 1.6-.9.2c-.1 0-.2.3 0 .4z" fill="#131c2d" data-color="5"></path>
        <path d="M89.6 160.6h-9.4c-.4 0-.8-.3-.8-.8v.5c0 .4.3.8.8.8h9.4c.8 0 1.4-.6 1.4-1.4v-.3c-.1.6-.7 1.2-1.4 1.2z" fill="#adc0d8" data-color="8"></path>
        <path d="M98.3 135.5l-.2-.2-.1.1c.5.5.6 1.3.1 1.9l-5.9 7.3c-.1.2-.4.3-.6.3.3.2.8.2 1-.1l5.9-7.3c.5-.7.4-1.5-.2-2z" fill="#adc0d8" data-color="8"></path>
        <path d="M55.1 109.5l-1.3-2.1c.3-1.4-.2-2.6-.2-2.6l-4.5 1.4c-1.5.5-2.5 2.1-2.1 3.7l.4 1.6.1.4c.3.8.8 2.7.5 3.7h4.3s-.1-1.7.9-2h.1c.9.1 1.6-.7 1.5-1.6l-.2-1.9c.5 0 .7-.3.5-.6z" fill="#f5d0c6" data-color="3"></path>
        <path d="M67.2 151.1c10.1-2.7 13.3-18 10.4-17.2-13.4 3.5-27-4.5-30.6-17.9v-.1c-1-3.9-6.3-4.6-8.2-1-2.9 5.4-3.8 11.9-2.1 18.3 2.6 10 11 17.1 20.6 18.5v7c-6.1.1-10.7.8-10.7 1.6 0 .9 5.7 1.7 12.8 1.7s12.8-.7 12.8-1.7c0-.8-4.6-1.5-10.7-1.6v-6.8c1.9 0 3.8-.3 5.7-.8z" fill="#ffffff" data-color="4"></path>
        <path d="M67.2 151.1c10.1-2.7 13.3-18 10.4-17.2-13.4 3.5-27-4.5-30.6-17.9v-.1c-1-3.9-6.3-4.6-8.2-1-2.9 5.4-3.8 11.9-2.1 18.3 2.6 10 11 17.1 20.6 18.5v7c-6.1.1-10.7.8-10.7 1.6 0 .9 5.7 1.7 12.8 1.7s12.8-.7 12.8-1.7c0-.8-4.6-1.5-10.7-1.6v-6.8c1.9 0 3.8-.3 5.7-.8z" opacity=".1" fill="#000000" data-color="1"></path>
        <path d="M57.7 123.7l2 3.3 12.1 3.8 2.8 1.7c.3.2.4.4.5.7l.7 2.2c.1.2 0 .5-.1.7l-.2.5c-.2.4-.6.7-1.1.7H74c-.4 0-.8-.3-.9-.7l-.3-1.4-2.4-2.1-11.7-.5c-.6 0-1.2-.3-1.6-.8l-4.1-5.1 4.7-3z" fill="#f5d0c6" data-color="3"></path>
        <path d="M55.1 103.8c-.5-.3-.9-.3-1.4-.3-.6 0-1.3.2-1.9.1-.7 0-1.3.1-2 .1-1 .1-2 .3-2.5 1.3l-.1.1s-.1 0-.2.1c-.4.1-.7.4-.9.8-.2.4-.3.8-.3 1.2v.9c0 .7.2 1.3.4 1.9.2.3.6 1.2 1.1 1 .1 0 .2-.1.2-.2.1.5.3 1.1.3 1.1.1.2.1.6.3.8l.7-.7c.4-.5.7-1 .8-1.6v-.6c0-.2.1-.4.3-.5.1-.1.3-.1.5 0 .3.2.6.6.6 1 0 .2 0 .5-.1.8-.1.2-.2.3-.4.4-.4.4-.6 1.1-.2 1.5.1.1.2.2.3.2.4.2.9.2 1.3.3.4 0 .9.1 1.3.1h.3c.9.1 1.6-.7 1.5-1.6-.1-.6-.2-1.2-.2-1.8-.3 0-.7 0-.9.2-.1.1-.2.2-.2.4-.2.3-.4.5-.7.6h-.5l-.3-.3c-.4-.4-.6-1-.8-1.5-.2-.6-.3-1.2-.3-1.8 0-.3 0-.7.2-1 .3-.5 1.2-.9 1.8-.9.2 0 .5-.1.7-.1.1 0 .3 0 .4-.1.3-.1.6-.1.9-.3s.5-.4.5-.7c0-.3-.3-.7-.5-.9z" fill="#ffffff" data-color="4"></path>
        <path d="M55.1 103.8c-.5-.3-.9-.3-1.4-.3-.6 0-1.3.2-1.9.1-.7 0-1.3.1-2 .1-1 .1-2 .3-2.5 1.3l-.1.1s-.1 0-.2.1c-.4.1-.7.4-.9.8-.2.4-.3.8-.3 1.2v.9c0 .7.2 1.3.4 1.9.2.3.6 1.2 1.1 1 .1 0 .2-.1.2-.2.1.5.3 1.1.3 1.1.1.2.1.6.3.8l.7-.7c.4-.5.7-1 .8-1.6v-.6c0-.2.1-.4.3-.5.1-.1.3-.1.5 0 .3.2.6.6.6 1 0 .2 0 .5-.1.8-.1.2-.2.3-.4.4-.4.4-.6 1.1-.2 1.5.1.1.2.2.3.2.4.2.9.2 1.3.3.4 0 .9.1 1.3.1h.3c.9.1 1.6-.7 1.5-1.6-.1-.6-.2-1.2-.2-1.8-.3 0-.7 0-.9.2-.1.1-.2.2-.2.4-.2.3-.4.5-.7.6h-.5l-.3-.3c-.4-.4-.6-1-.8-1.5-.2-.6-.3-1.2-.3-1.8 0-.3 0-.7.2-1 .3-.5 1.2-.9 1.8-.9.2 0 .5-.1.7-.1.1 0 .3 0 .4-.1.3-.1.6-.1.9-.3s.5-.4.5-.7c0-.3-.3-.7-.5-.9z" opacity=".6" fill="#000000" data-color="1"></path>
        <path d="M86 157.9c-.3.2-.6.4-1 .6-.2.1-.1.5.2.4.4-.2.8-.4 1.2-.7l-.4-.3z" fill="#ffffff" data-color="4"></path>
        <path d="M84.3 157c-.3.2-.5.4-.9.5-.2.1-.1.5.2.4.4-.2.8-.4 1.1-.7l-.4-.2z" fill="#ffffff" data-color="4"></path>
        <path d="M85.1 157.4c-.3.2-.6.4-.9.5-.2.1-.1.5.2.4.4-.2.8-.4 1.1-.7l-.4-.2z" fill="#ffffff" data-color="4"></path>
        <path d="M86.8 158.3c-.3.3-.6.5-1 .6-.2.1-.1.5.2.4.5-.2.9-.4 1.2-.8l-.4-.2z" fill="#ffffff" data-color="4"></path>
        <path d="M92.8 138.6c0 .4-.1.8-.2 1.2-.1.3.3.4.4.1.2-.5.2-1 .2-1.5l-.4.2z" fill="#ffffff" data-color="4"></path>
        <path d="M91.7 140.1c-.1.3.3.4.4.1.2-.4.2-.9.2-1.4l-.4.2c0 .4-.1.7-.2 1.1z" fill="#ffffff" data-color="4"></path>
        <path d="M93.7 138.3c0 .4-.1.8-.2 1.3-.1.3.3.4.4.1.2-.5.2-1 .2-1.6l-.4.2z" fill="#ffffff" data-color="4"></path>
        <path d="M95 137.7l-.4.2c0 .5 0 .9-.2 1.4-.1.3.3.4.4.1.2-.6.2-1.2.2-1.7z" fill="#ffffff" data-color="4"></path>
    </g>
</svg>